<?xml version="1.0" standalone="yes"?>

<svg version="1.1" viewBox="0.0 0.0 226.77165354330708 37.79527559055118" fill="none" stroke="none" stroke-linecap="square" stroke-miterlimit="10" xmlns="http://www.w3.org/2000/svg" xmlns:xlink="http://www.w3.org/1999/xlink"><clipPath id="p.0"><path d="m0 0l226.77165 0l0 37.795277l-226.77165 0l0 -37.795277z" clip-rule="nonzero"></path></clipPath><g clip-path="url(#p.0)"><path fill="#000000" fill-opacity="0.0" d="m0 0l226.77165 0l0 37.795277l-226.77165 0z" fill-rule="evenodd"></path><path fill="#000000" fill-opacity="0.0" d="m-12.000749 -9.267716l249.07086 0l0 51.779526l-249.07086 0z" fill-rule="evenodd"></path><path fill="#4dbbd5" d="m17.007132 3.5557926q5.15625 0 8.09375 2.6406252q2.9375 2.625 2.9375 7.65625q0 4.999999 -1.921875 8.687499q-1.921875 3.6875 -5.375 5.5625q-3.4375 1.859375 -7.796874 1.859375l-11.25 0l5.578125 -26.40625l9.734375 0zm-4.921874 4.875l-3.546875 16.65625l4.609375 0q2.421875 0 4.515624 -1.1875q2.09375 -1.203125 3.3125 -3.609375q1.234375 -2.421875 1.234375 -5.468749q0 -3.25 -1.515625 -4.8125q-1.5 -1.578125 -4.09375 -1.578125l-4.515624 0zm31.87114 1.890625q0.375 0 0.765625 0.03125q0.390625 0.03125 0.84375 0.078125l-1.078125 5.09375q-0.515625 -0.109375 -1.09375 -0.21875q-0.5625 -0.109375 -1.140625 -0.109375q-2.421875 0 -3.953125 1.499999q-1.515625 1.5 -2.203125 4.828125l-1.78125 8.4375l-5.265627 0l4.015627 -19.125l4.984375 0l-0.765625 3.359375l-0.03125 0.0625l0.09375 0.09375q0.90625 -1.9375 2.640625 -2.984375q1.75 -1.046875 3.96875 -1.046875zm10.511002 -6.765625l-0.96875 4.3125l-5.296875 0l0.984375 -4.3125l5.28125 0zm-1.546875 7.28125l-4.078125 19.125l-5.296875 0l4.078125 -19.125l5.296875 0zm7.3970795 0l1.203125 13.609374l0.0625 0l6.78125 -13.609374l5.546875 0l-10.484375 19.125l-5.984375 0l-2.515625 -19.125l5.390625 0zm23.906158 -0.515625q4.234375 0 6.578125 2.203125q2.34375 2.203125 2.34375 6.140624q0 0.78125 -0.09375 1.53125q-0.078125 0.75 -0.21875 1.46875l-14.09375 0l-0.03125 1.015625q0 1.921875 1.125 2.890625q1.140625 0.953125 3.078125 0.953125q1.15625 0 2.109375 -0.59375q0.96875 -0.609375 1.828125 -2.046875l5.265625 0q-1.3125 3.4375 -3.6875 5.03125q-2.375 1.578125 -6.21875 1.578125q-4.0 0 -6.265625 -2.21875q-2.265625 -2.234375 -2.265625 -6.15625q0 -4.875 2.953125 -8.328124q2.96875 -3.46875 7.59375 -3.46875zm-4.921875 8.031249l8.765625 0l0 -0.171875q0 -1.9375 -0.859375 -2.921874q-0.84375 -0.984375 -2.71875 -0.984375q-1.796875 0 -3.125 1.0q-1.3125 0.99999905 -2.0625 3.078124zm29.996979 -8.031249q0.375 0 0.765625 0.03125q0.390625 0.03125 0.84375 0.078125l-1.078125 5.09375q-0.515625 -0.109375 -1.09375 -0.21875q-0.5625 -0.109375 -1.140625 -0.109375q-2.421875 0 -3.953125 1.499999q-1.515625 1.5 -2.203125 4.828125l-1.78125 8.4375l-5.265625 0l4.015625 -19.125l4.984375 0l-0.765625 3.359375l-0.03125 0.0625l0.09375 0.09375q0.90625 -1.9375 2.640625 -2.984375q1.75 -1.046875 3.96875 -1.046875z" fill-rule="nonzero"></path><path fill="#e64b35" d="m125.52861 3.5557926q4.3125 0 6.640625 1.8906252q2.328125 1.875 2.328125 5.796875q0 2.78125 -1.40625 4.921874q-1.40625 2.125 -3.8125 3.234375q-2.40625 1.09375 -4.921875 1.09375l-7.328125 0l-1.9999924 9.46875l-5.796875 0l5.5 -26.40625l10.796867 0zm-5.90625 4.515625l-1.625 7.90625l6.046875 0q2.125 0 3.375 -1.171875q1.265625 -1.1875 1.265625 -3.4375q0 -1.65625 -1.046875 -2.46875q-1.046875 -0.828125 -2.921875 -0.828125l-5.09375 0zm26.116333 2.25q4.234375 0 6.5625 2.109375q2.34375 2.109375 2.34375 5.999999q0 5.25 -3.078125 8.65625q-3.0625 3.40625 -8.046875 3.40625q-4.15625 0 -6.46875 -2.15625q-2.296875 -2.171875 -2.296875 -6.109375q0 -5.09375 3.0625 -8.499999q3.078125 -3.40625 7.921875 -3.40625zm-5.734375 11.890624q0 1.84375 1.015625 3.078125q1.03125 1.234375 2.75 1.234375q2.515625 0 4.078125 -2.484375q1.5625 -2.5 1.5625 -5.546875q0 -2.0625 -0.984375 -3.140624q-0.96875 -1.078125 -2.875 -1.078125q-2.484375 0 -4.015625 2.484374q-1.53125 2.484375 -1.53125 5.453125zm23.09845 -11.374999l0.734375 13.468749l0.078125 0l5.890625 -13.468749l5.328125 0l0.59375 13.359374l0.078125 0l6.140625 -13.359374l5.546875 0l-10.0 19.125l-5.46875 0l-0.671875 -13.421875l-0.0625 0l-5.9375 13.421875l-5.5 0l-2.109375 -19.125l5.359375 0zm34.982727 -0.515625q4.234375 0 6.578125 2.203125q2.34375 2.203125 2.34375 6.140624q0 0.78125 -0.09375 1.53125q-0.078125 0.75 -0.21875 1.46875l-14.09375 0l-0.03125 1.015625q0 1.921875 1.125 2.890625q1.140625 0.953125 3.078125 0.953125q1.15625 0 2.109375 -0.59375q0.96875 -0.609375 1.828125 -2.046875l5.265625 0q-1.3125 3.4375 -3.6875 5.03125q-2.375 1.578125 -6.21875 1.578125q-4.0 0 -6.265625 -2.21875q-2.265625 -2.234375 -2.265625 -6.15625q0 -4.875 2.953125 -8.328124q2.96875 -3.46875 7.59375 -3.46875zm-4.921875 8.031249l8.765625 0l0 -0.171875q0 -1.9375 -0.859375 -2.921874q-0.84375 -0.984375 -2.71875 -0.984375q-1.796875 0 -3.125 1.0q-1.3125 0.99999905 -2.0625 3.078124zm29.996979 -8.031249q0.375 0 0.765625 0.03125q0.390625 0.03125 0.84375 0.078125l-1.078125 5.09375q-0.515625 -0.109375 -1.09375 -0.21875q-0.5625 -0.109375 -1.140625 -0.109375q-2.421875 0 -3.953125 1.499999q-1.515625 1.5 -2.203125 4.828125l-1.78125 8.4375l-5.265625 0l4.015625 -19.125l4.984375 0l-0.765625 3.359375l-0.03125 0.0625l0.09375 0.09375q0.90625 -1.9375 2.640625 -2.984375q1.75 -1.046875 3.96875 -1.046875z" fill-rule="nonzero"></path></g></svg>

